<svg xmlns="http://www.w3.org/2000/svg" width="120" height="120" fill="none" viewBox="0 0 120 120"><rect width="117" height="117" x="1.5" y="1.5" fill="#05AEFF" rx="58.5"/><rect width="117" height="117" x="1.5" y="1.5" stroke="#fff" stroke-width="3" rx="58.5"/><path fill="#fff" d="M39.1591 40H37.0455C36.9205 39.392 36.7017 38.858 36.3892 38.3977C36.0824 37.9375 35.7074 37.5511 35.2642 37.2386C34.8267 36.9205 34.3409 36.6818 33.8068 36.5227C33.2727 36.3636 32.7159 36.2841 32.1364 36.2841C31.0795 36.2841 30.1222 36.5511 29.2642 37.0852C28.4119 37.6193 27.733 38.4062 27.2273 39.446C26.7273 40.4858 26.4773 41.7614 26.4773 43.2727C26.4773 44.7841 26.7273 46.0597 27.2273 47.0994C27.733 48.1392 28.4119 48.9261 29.2642 49.4602C30.1222 49.9943 31.0795 50.2614 32.1364 50.2614C32.7159 50.2614 33.2727 50.1818 33.8068 50.0227C34.3409 49.8636 34.8267 49.6278 35.2642 49.3153C35.7074 48.9972 36.0824 48.608 36.3892 48.1477C36.7017 47.6818 36.9205 47.1477 37.0455 46.5455H39.1591C39 47.4375 38.7102 48.2358 38.2898 48.9403C37.8693 49.6449 37.3466 50.2443 36.7216 50.7386C36.0966 51.2273 35.3949 51.5994 34.6165 51.8551C33.8438 52.1108 33.017 52.2386 32.1364 52.2386C30.6477 52.2386 29.3239 51.875 28.1648 51.1477C27.0057 50.4205 26.0938 49.3864 25.429 48.0455C24.7642 46.7045 24.4318 45.1136 24.4318 43.2727C24.4318 41.4318 24.7642 39.8409 25.429 38.5C26.0938 37.1591 27.0057 36.125 28.1648 35.3977C29.3239 34.6705 30.6477 34.3068 32.1364 34.3068C33.017 34.3068 33.8438 34.4347 34.6165 34.6903C35.3949 34.946 36.0966 35.321 36.7216 35.8153C37.3466 36.304 37.8693 36.9006 38.2898 37.6051C38.7102 38.304 39 39.1023 39.1591 40ZM52.8359 52L46.8359 43.9886H44.6882V52H42.5746V34.5455H44.6882V42.1136H45.6087L52.5973 34.5455H55.12L48.0632 42.2159L55.3587 52H52.8359ZM58.0902 52V34.5455H63.9879C65.3572 34.5455 66.4766 34.7926 67.3459 35.2869C68.2209 35.7756 68.8686 36.4375 69.2891 37.2727C69.7095 38.108 69.9197 39.0398 69.9197 40.0682C69.9197 41.0966 69.7095 42.0312 69.2891 42.8722C68.8743 43.7131 68.2322 44.3835 67.3629 44.8835C66.4936 45.3778 65.38 45.625 64.022 45.625H59.7947V43.75H63.9538C64.8913 43.75 65.6442 43.5881 66.2124 43.2642C66.7805 42.9403 67.1925 42.5028 67.4482 41.9517C67.7095 41.3949 67.8402 40.767 67.8402 40.0682C67.8402 39.3693 67.7095 38.7443 67.4482 38.1932C67.1925 37.642 66.7777 37.2102 66.2038 36.8977C65.63 36.5795 64.8686 36.4205 63.9197 36.4205H60.2038V52H58.0902Z"/><path stroke="#fff" stroke-width="3" d="M2 62.8542H75.0503L89.9741 26.6875V63V99.6875L106.5 63H120"/></svg>